<?xml version="1.0" encoding="utf-8"?>
<svg version="1.0" xmlns="http://www.w3.org/2000/svg" width="400pt" height="400pt" viewBox="0 0 416 415" preserveAspectRatio="none">
  <g transform="translate(0.000000,658.000000) scale(0.100000,-0.100000)" fill="#000000" stroke="none">
    <path d="M 1104.15 6569.71 C 797.15 6545.71 534.15 6421.71 326.148 6200.71 C 166.148 6029.71 65.148 5827.71 25.148 5594.71 C 2.148 5462.71 1.148 3547.71 24.148 3416.71 C 115.148 2896.71 509.15 2515.71 1036.15 2439.71 C 1134.15 2425.71 3024.15 2425.71 3122.15 2439.71 C 3648.15 2515.71 4043.15 2896.71 4133.15 3415.71 C 4156.15 3545.71 4157.15 5446.71 4134.15 5586.71 C 4064.15 6017.71 3750.15 6384.71 3339.15 6514.71 C 3149.15 6574.71 3179.15 6572.71 2144.15 6574.71 C 1622.15 6575.71 1154.15 6572.71 1104.15 6569.71 Z M 1319.15 5267.71 C 1458.15 5224.71 1548.15 5069.71 1519.15 4921.71 C 1503.15 4841.71 1448.15 4763.71 1379.15 4722.71 L 1325.15 4689.71 L 2079.15 4689.71 L 2834.15 4689.71 L 2783.15 4718.71 C 2727.15 4751.71 2688.15 4796.71 2657.15 4866.71 C 2630.15 4928.71 2635.15 5053.71 2667.15 5116.71 C 2752.15 5279.71 2972.15 5335.71 3117.15 5229.71 C 3236.15 5143.71 3279.15 4985.71 3220.15 4855.71 C 3194.15 4797.71 3137.15 4735.71 3087.15 4710.71 L 3044.15 4689.71 L 3149.15 4689.71 C 3270.15 4689.71 3310.15 4675.71 3346.15 4620.71 C 3389.15 4557.71 3367.15 4472.71 3297.15 4429.71 C 3265.15 4410.71 3245.15 4409.71 2702.15 4409.71 L 2141.15 4409.71 L 2255.15 4137.71 C 2414.15 3759.71 2411.15 3766.71 2393.15 3740.71 C 2378.15 3719.71 2373.15 3719.71 2079.15 3719.71 C 1787.15 3719.71 1780.15 3719.71 1765.15 3740.71 C 1747.15 3766.71 1740.15 3744.71 1893.15 4111.71 L 2016.15 4404.71 L 1450.15 4409.71 C 925.15 4414.71 881.15 4415.71 856.15 4432.71 C 790.15 4475.71 771.15 4559.71 812.15 4620.71 C 848.15 4675.71 888.15 4689.71 1009.15 4689.71 L 1114.15 4689.71 L 1062.15 4719.71 C 933.15 4793.71 878.15 4964.71 941.15 5100.71 C 974.15 5172.71 1007.15 5209.71 1068.15 5242.71 C 1151.15 5288.71 1227.15 5295.71 1319.15 5267.71 Z"/>
  </g>
</svg>